Exact Audio Copy V0.99 prebeta 1 from 25. May 2007

EAC 抓取日志文件从17. 三月 2011, 21:17

群星 / 军旅歌坛名人集3

使用驱动器  ：PIONEER DVD-RW  DVR-115   Adapter: 0  ID: 0

读取模式     : 保护
使用精确流   : 是
废除音频缓冲 : 是
使用 C2 指针 : 否

读取偏移校正                   : 48
读取 Lead-In 和 Lead-Out       : 否
用静音填充抓取中丢失偏移的采样 : 是
去除首尾静音块                 : 否
已用接口                       : Win NT 及 2000 本地 Win32 接口

所用输出格式 : 内部 WAV 函数
样本格式     : 44.100 Hz;16 Bit;立体声
使用压缩偏移 : 48


被抓轨 CD 的 TOC

     音轨 |   开始   |   长度   | 起始扇区 | 结尾扇区 
    --------------------------------------------------
       1  |  0:00.00 |  3:00.70 |       0  |   13569  
       2  |  3:00.70 |  3:56.42 |   13570  |   31311  
       3  |  6:57.37 |  5:14.58 |   31312  |   54919  
       4  | 12:12.20 |  3:45.22 |   54920  |   71816  
       5  | 15:57.42 |  3:23.58 |   71817  |   87099  
       6  | 19:21.25 |  4:32.67 |   87100  |  107566  
       7  | 23:54.17 |  5:45.53 |  107567  |  133494  
       8  | 29:39.70 |  3:12.70 |  133495  |  147964  
       9  | 32:52.65 |  2:10.40 |  147965  |  157754  
      10  | 35:03.30 |  3:01.27 |  157755  |  171356  
      11  | 38:04.57 |  4:05.65 |  171357  |  189796  
      12  | 42:10.47 |  3:43.60 |  189797  |  206581  
      13  | 45:54.32 |  2:33.53 |  206582  |  218109  
      14  | 48:28.10 |  4:18.20 |  218110  |  237479  
      15  | 52:46.30 |  4:12.42 |  237480  |  256421  
      16  | 56:58.72 |  3:29.08 |  256422  |  272104  


范围状态及错误

已选择范围

     文件名 E:\20世纪中华歌坛名人百集珍藏版-军旅歌坛名人集3[lwg188原创]\群星 - 军旅歌坛名人集3.wav

     峰值电平 99.9 %
     范围质量 99.9 %
     复制 CRC E059E6A7
     复制成功

没有错误发生

状态报告结尾
